<?xml version="1.0" encoding="utf-8"?><svg viewBox="0 0 41.09 40.03" xmlns="http://www.w3.org/2000/svg" xmlns:xlink="http://www.w3.org/1999/xlink"><style>:root>svg{display:none}:root>svg:target{display:block}</style><svg viewBox="0 0 38.844 35.35" id="Icon" xmlns="http://www.w3.org/2000/svg"><path class="acls-1" d="M5.753.01L4.697 5.97h26.462l-1.066 5.01H3.61L2.342 16.9l26.743.04-1.769 7.95-10.666 3.54-9.245-3.54.459-2.95H1.23l-1.239 7.54 15.288 5.85 17.626-5.85L38.852.01h-33.1z"/></svg><svg viewBox="0 0 38.375 38.41" id="Icon2" xmlns="http://www.w3.org/2000/svg"><path class="bcls-1" d="M35.984 10.8l-8.4-8.4 2.4-2.4 8.4 8.4zm-2.4 2.4l-1.2 13.2c-10.8 0-26.4 12-26.4 12l-1.993-1.99 10.264-10.26a3.656 3.656 0 001.329.25 3.6 3.6 0 10-3.346-2.27L1.977 34.39-.016 32.4s12-15.6 12-26.4l13.2-1.2z"/></svg><svg viewBox="0 0 38.91 31.03" id="Icon3" xmlns="http://www.w3.org/2000/svg"><path class="ccls-1" d="M11.55 17.91a7.906 7.906 0 107.9-7.76 7.83 7.83 0 00-7.9 7.76M36.48 4.78h-8.51C27.36 2.39 26.75 0 24.32 0h-9.73c-2.43 0-3.04 2.39-3.65 4.78H2.42A2.416 2.416 0 00-.01 7.16v21.5a2.424 2.424 0 002.43 2.39h34.06a2.427 2.427 0 002.44-2.39V7.16a2.418 2.418 0 00-2.44-2.38M19.45 28.51a10.6 10.6 0 1110.8-10.6 10.692 10.692 0 01-10.8 10.6m17.47-16.54l-4.99.03V9.93l4.99.03v2.01z"/></svg><svg viewBox="0 0 41.09 40.03" id="Icon4" xmlns="http://www.w3.org/2000/svg"><path class="dcls-1" d="M41.1 23.78v-7.36l-6.24-1.11a13.662 13.662 0 00-.86-2.05l3.44-4.73-5.4-5.32-4.81 3.37a15.244 15.244 0 00-2.09-.85L24.17 0h-7.64l-.97 5.73a14.871 14.871 0 00-2.1.85l-4.8-3.37-5.4 5.31 3.43 4.74a15.531 15.531 0 00-.86 2.05L0 16.27v7.51l5.85.96a13.436 13.436 0 00.86 2.03l-3.45 4.75 5.4 5.32 4.83-3.4a14.82 14.82 0 002.06.84l.98 5.76h7.64l.97-5.76a14.82 14.82 0 002.06-.84l4.84 3.39 5.4-5.31-3.45-4.75a14.541 14.541 0 00.86-2.03zm-20.75 1.25a5.006 5.006 0 115.09-5.01 5.049 5.049 0 01-5.09 5.01"/></svg></svg>